<svg xmlns="http://www.w3.org/2000/svg" viewBox="0 0 80 32" fill="none">
  <rect width="80" height="32" rx="3" fill="#E30613"/>
  <text x="8" y="22" font-family="Arial Black,Arial,sans-serif" font-weight="900" font-size="16" fill="white" letter-spacing="0.5">QRIS</text>
  <rect x="58" y="5" width="6" height="6" rx="1" fill="none" stroke="white" stroke-width="1.2"/>
  <rect x="59.5" y="6.5" width="3" height="3" fill="white"/>
  <rect x="66" y="5" width="6" height="6" rx="1" fill="none" stroke="white" stroke-width="1.2"/>
  <rect x="67.5" y="6.5" width="3" height="3" fill="white"/>
  <rect x="58" y="21" width="6" height="6" rx="1" fill="none" stroke="white" stroke-width="1.2"/>
  <rect x="59.5" y="22.5" width="3" height="3" fill="white"/>
  <rect x="66" y="14" width="1.5" height="1.5" fill="white" opacity="0.8"/>
  <rect x="68.5" y="14" width="3" height="1.5" fill="white" opacity="0.8"/>
  <rect x="66" y="17" width="6" height="1.5" fill="white" opacity="0.8"/>
  <rect x="66" y="20" width="3" height="1.5" fill="white" opacity="0.8"/>
  <rect x="70.5" y="20" width="1.5" height="1.5" fill="white" opacity="0.8"/>
  <rect x="66" y="23" width="6" height="1.5" fill="white" opacity="0.8"/>
  <rect x="66" y="26" width="3" height="1.5" fill="white" opacity="0.8"/>
</svg>
